<svg width="294" height="176" viewBox="0 0 294 176" fill="none" xmlns="http://www.w3.org/2000/svg">
<path d="M12 74.5V155.5C12 160.47 16.03 164.5 21 164.5H273C277.97 164.5 282 160.47 282 155.5V74.5H12Z" fill="#FF7300" stroke="black" stroke-width="3" stroke-miterlimit="10"/>
<path d="M75 38.5V11.5C75 6.53 79.03 2.5 84 2.5H210C214.97 2.5 219 6.53 219 11.5V38.5H201V20.5H93V38.5H75Z" fill="#FF7300" stroke="black" stroke-width="3" stroke-miterlimit="10"/>
<path d="M282 38.5H12V65.5H282V38.5Z" fill="white" stroke="black" stroke-width="3" stroke-miterlimit="10"/>
<path d="M39 56.5H84V92.5C84 97.47 79.97 101.5 75 101.5H48C43.03 101.5 39 97.47 39 92.5V56.5Z" fill="white" stroke="black" stroke-width="3" stroke-miterlimit="10"/>
<path d="M210 56.5H255V92.5C255 97.47 250.97 101.5 246 101.5H219C214.03 101.5 210 97.47 210 92.5V56.5Z" fill="white" stroke="black" stroke-width="3" stroke-miterlimit="10"/>
<path d="M162 116.5C162 108.22 155.28 101.5 147 101.5C138.72 101.5 132 108.22 132 116.5C132 122.37 135.38 127.44 140.3 129.91L132 146.5H162L153.7 129.91C158.62 127.45 162 122.38 162 116.5Z" fill="white" stroke="black" stroke-width="3" stroke-miterlimit="10"/>
<path d="M5 65.5H39V74.5H3V67.5C3 66.4 3.9 65.5 5 65.5Z" fill="white" stroke="black" stroke-width="3" stroke-miterlimit="10"/>
<path d="M3 74.5H39V92.5H5C3.9 92.5 3 91.6 3 90.5V74.5Z" fill="#FF7300" stroke="black" stroke-width="3" stroke-miterlimit="10"/>
<path d="M255 74.5H291V90.5C291 91.6 290.1 92.5 289 92.5H255V74.5Z" fill="#FF7300" stroke="black" stroke-width="3" stroke-miterlimit="10"/>
<path d="M210 92.5H192L183 83.5H111L102 92.5H84V74.5H210V92.5Z" fill="#FF7300" stroke="black" stroke-width="3" stroke-miterlimit="10"/>
<path d="M210 65.5H84V74.5H210V65.5Z" fill="white" stroke="black" stroke-width="3" stroke-miterlimit="10"/>
<path d="M255 65.5H289C290.1 65.5 291 66.4 291 67.5V74.5H255V65.5Z" fill="white" stroke="black" stroke-width="3" stroke-miterlimit="10"/>
<path d="M39 38.5H30V74.5H39V38.5Z" fill="white" stroke="black" stroke-width="3" stroke-miterlimit="10"/>
<path d="M93 38.5H84V74.5H93V38.5Z" fill="white" stroke="black" stroke-width="3" stroke-miterlimit="10"/>
<path d="M210 38.5H201V74.5H210V38.5Z" fill="white" stroke="black" stroke-width="3" stroke-miterlimit="10"/>
<path d="M264 38.5H255V74.5H264V38.5Z" fill="white" stroke="black" stroke-width="3" stroke-miterlimit="10"/>
<path d="M30 74.5H39V171.5C39 172.6 38.1 173.5 37 173.5H32C30.9 173.5 30 172.6 30 171.5V74.5Z" fill="#FF7300" stroke="black" stroke-width="3" stroke-miterlimit="10"/>
<path d="M84 74.5H93V171.5C93 172.6 92.1 173.5 91 173.5H86C84.9 173.5 84 172.6 84 171.5V74.5Z" fill="#FF7300" stroke="black" stroke-width="3" stroke-miterlimit="10"/>
<path d="M201 74.5H210V171.5C210 172.6 209.1 173.5 208 173.5H203C201.9 173.5 201 172.6 201 171.5V74.5Z" fill="#FF7300" stroke="black" stroke-width="3" stroke-miterlimit="10"/>
<path d="M255 74.5H264V171.5C264 172.6 263.1 173.5 262 173.5H257C255.9 173.5 255 172.6 255 171.5V74.5Z" fill="#FF7300" stroke="black" stroke-width="3" stroke-miterlimit="10"/>
<path d="M75 74.5H48V92.5H75V74.5Z" fill="#FF7300" stroke="black" stroke-width="3" stroke-miterlimit="10"/>
<path d="M246 74.5H219V92.5H246V74.5Z" fill="#FF7300" stroke="black" stroke-width="3" stroke-miterlimit="10"/>
</svg>
